<svg width="512" height="512" viewBox="0 0 512 512" xmlns="http://www.w3.org/2000/svg">
  <defs>
    <linearGradient id="grad1" x1="0%" y1="0%" x2="100%" y2="100%">
      <stop offset="0%" style="stop-color:#4CAF50;stop-opacity:1" />
      <stop offset="100%" style="stop-color:#2E7D32;stop-opacity:1" />
    </linearGradient>
  </defs>
  
  <!-- Background circle -->
  <circle cx="256" cy="256" r="240" fill="url(#grad1)" stroke="#1B5E20" stroke-width="8"/>
  
  <!-- Gear icon -->
  <g transform="translate(256, 256)">
    <!-- Main gear -->
    <circle cx="0" cy="0" r="80" fill="white" opacity="0.9"/>
    <circle cx="0" cy="0" r="60" fill="none" stroke="#2E7D32" stroke-width="6"/>
    
    <!-- Gear teeth -->
    <g stroke="#2E7D32" stroke-width="8" stroke-linecap="round">
      <line x1="0" y1="-100" x2="0" y2="-70"/>
      <line x1="0" y1="70" x2="0" y2="100"/>
      <line x1="-100" y1="0" x2="-70" y2="0"/>
      <line x1="70" y1="0" x2="100" y2="0"/>
      <line x1="-70.7" y1="-70.7" x2="-50" y2="-50"/>
      <line x1="50" y1="50" x2="70.7" y2="70.7"/>
      <line x1="70.7" y1="-70.7" x2="50" y2="-50"/>
      <line x1="-50" y1="50" x2="-70.7" y2="70.7"/>
    </g>
    
    <!-- Center circle -->
    <circle cx="0" cy="0" r="20" fill="#2E7D32"/>
    <circle cx="0" cy="0" r="8" fill="white"/>
  </g>
  
  <!-- Small environment dots -->
  <circle cx="120" cy="120" r="12" fill="white" opacity="0.8"/>
  <circle cx="392" cy="120" r="12" fill="white" opacity="0.8"/>
  <circle cx="120" cy="392" r="12" fill="white" opacity="0.8"/>
  <circle cx="392" cy="392" r="12" fill="white" opacity="0.8"/>
</svg> 